<?xml version="1.0" standalone="no"?>
<!DOCTYPE svg PUBLIC "-//W3C//DTD SVG 20010904//EN"
 "http://www.w3.org/TR/2001/REC-SVG-20010904/DTD/svg10.dtd">
<svg version="1.0" xmlns="http://www.w3.org/2000/svg"
 width="800.000000pt" height="800.000000pt" viewBox="0 0 800.000000 800.000000"
 preserveAspectRatio="xMidYMid meet">

<g transform="translate(0.000000,800.000000) scale(0.100000,-0.100000)"
fill="#000000" stroke="none">
<path d="M1900 7850 c0 -192 3 -188 -142 -190 -57 -1 -110 -2 -118 -2 -32 -1
-301 23 -630 57 -348 36 -971 95 -996 95 -12 0 -14 -168 -14 -1069 l0 -1069
248 -6 c136 -3 310 -8 387 -11 77 -3 313 -10 525 -15 523 -14 495 -12 524 -39
16 -15 27 -39 30 -65 8 -62 16 -734 17 -1323 l0 -523 25 16 c13 9 24 24 24 33
-2 214 14 1525 19 1597 6 80 12 106 27 123 63 66 72 -51 74 -874 1 -596 5
-775 15 -803 4 -11 11 -9 32 6 26 19 27 22 30 148 6 193 6 188 5 349 -1 270
-4 366 -12 395 -5 16 -4 156 2 312 6 156 9 342 8 415 -2 145 10 188 59 200 13
3 136 3 273 1 285 -7 252 -18 282 93 18 63 31 78 79 89 21 4 31 12 28 21 -7
25 -12 110 -14 267 -3 118 -6 155 -17 162 -9 5 -13 22 -12 44 2 20 -2 36 -8
36 -5 0 -10 9 -10 19 0 11 -6 21 -12 24 -10 3 -9 12 4 34 16 28 16 31 1 29
-10 -1 -17 9 -20 27 -2 15 1 27 7 27 6 0 8 5 4 11 -3 6 0 15 7 20 11 7 10 9
-5 9 -11 0 -28 -7 -38 -17 -12 -11 -18 -12 -18 -3 0 6 12 21 26 32 15 13 24
29 22 42 -1 11 4 32 13 46 8 14 20 34 26 45 7 11 20 35 29 53 9 18 36 54 61
79 28 30 48 62 55 91 6 24 26 62 44 85 19 23 42 52 51 64 10 13 24 23 31 23 6
0 12 4 12 9 0 13 89 53 102 45 6 -4 8 -3 5 3 -4 6 4 18 18 27 31 21 39 20 31
-1 -5 -15 -4 -15 9 1 8 11 15 26 15 33 0 7 0 16 1 21 1 11 31 43 51 53 14 7
16 6 12 -6 -4 -8 -11 -15 -17 -15 -6 0 -8 -3 -4 -6 3 -4 17 3 31 14 14 10 22
22 19 26 -3 3 3 6 14 6 11 0 26 6 32 14 15 18 129 32 143 18 7 -7 -2 -14 -30
-22 -23 -6 -44 -15 -48 -21 -3 -6 -12 -8 -20 -5 -10 4 -14 0 -12 -12 2 -12 -3
-16 -18 -15 -15 2 -20 -3 -19 -19 2 -26 24 -36 37 -17 8 12 9 11 5 -1 -2 -9
-16 -15 -33 -16 -45 -2 -51 -5 -29 -14 20 -8 20 -9 -1 -9 -11 -1 -27 -12 -34
-26 -9 -17 -21 -25 -34 -23 -26 4 -71 -49 -56 -67 6 -7 -2 -21 -24 -41 -25
-23 -30 -33 -20 -41 8 -9 14 -9 23 0 6 6 11 8 11 4 0 -14 -106 -97 -125 -97
-3 0 -5 9 -5 21 0 11 -4 17 -11 14 -5 -4 -8 -12 -6 -18 2 -7 -3 -18 -10 -26
-10 -10 -11 -16 -3 -21 8 -5 6 -11 -4 -19 -8 -7 -19 -10 -24 -7 -13 8 -36 -39
-29 -58 7 -18 -9 -31 -17 -14 -3 7 -3 0 1 -15 4 -22 -1 -35 -24 -60 -17 -18
-33 -40 -36 -49 -4 -11 -12 -15 -22 -12 -11 5 -14 2 -9 -10 3 -9 2 -16 -4 -16
-6 0 -12 4 -14 9 -1 5 -10 2 -18 -7 -13 -14 -12 -15 3 -9 31 12 18 -13 -18
-34 -19 -12 -35 -27 -35 -34 0 -7 -2 -20 -5 -27 -4 -10 3 -14 22 -13 21 0 28
-5 28 -20 0 -11 11 -25 25 -32 14 -7 20 -12 14 -13 -15 0 -27 -47 -17 -63 4
-7 6 -23 4 -36 -4 -31 14 -19 35 24 9 19 21 32 28 29 7 -3 25 11 40 31 16 20
30 34 32 32 7 -7 -19 -61 -34 -70 -8 -5 -11 -18 -8 -31 3 -11 1 -28 -4 -36 -8
-13 -10 -13 -10 2 0 9 -4 19 -9 22 -10 6 -8 -21 3 -47 13 -27 0 -31 -23 -8
-30 30 -39 26 -11 -4 13 -14 32 -25 42 -25 11 0 16 -4 13 -10 -3 -5 -1 -10 6
-10 8 0 6 -5 -4 -12 -14 -11 -15 -19 -8 -45 7 -26 7 -33 -4 -33 -9 0 -11 -7
-7 -22 5 -20 7 -20 10 -5 4 18 4 18 18 0 7 -10 14 -28 14 -40 0 -12 5 -25 12
-29 8 -5 9 0 6 14 -4 12 -2 22 4 22 10 0 1 41 -11 50 -9 7 2 156 12 166 4 4 7
-8 7 -26 0 -31 1 -33 16 -19 16 16 23 45 29 111 2 21 -1 35 -6 32 -5 -3 -13 5
-18 18 l-10 23 -1 -25 c0 -14 -7 -34 -15 -44 -8 -11 -15 -30 -15 -43 0 -13 -4
-23 -10 -23 -17 0 -7 70 12 75 10 4 15 15 13 30 -1 17 9 36 34 62 20 20 30 34
24 30 -9 -6 -11 -3 -7 8 4 9 9 13 12 10 5 -5 13 13 54 128 11 31 23 57 28 57
4 0 11 11 14 25 4 14 11 25 16 25 6 0 10 6 10 13 1 14 60 95 60 81 0 -5 7 -1
15 10 11 14 22 17 49 13 26 -4 38 -2 45 10 11 21 31 8 26 -18 -4 -18 -1 -20
18 -14 12 4 36 9 52 10 17 1 50 5 75 9 25 4 70 2 100 -4 86 -17 120 -19 120
-9 0 5 4 9 8 9 5 0 7 -19 6 -42 -1 -30 -7 -44 -20 -49 -11 -4 -13 -8 -6 -8 16
-1 15 -21 -2 -40 -8 -9 -16 -25 -18 -36 -1 -11 -11 -26 -20 -33 -10 -7 -23
-22 -29 -34 -10 -18 -9 -20 5 -15 12 5 16 0 16 -22 0 -16 6 -32 13 -34 9 -4 8
-8 -3 -16 -13 -10 -13 -11 0 -11 18 0 70 -46 71 -63 3 -36 -4 -73 -17 -83 -7
-6 -11 -13 -8 -16 3 -3 -7 -9 -21 -12 -16 -4 -23 -11 -19 -18 5 -8 -2 -9 -24
-5 -19 4 -45 0 -67 -9 -19 -8 -53 -16 -74 -17 -22 -1 -37 -5 -34 -9 2 -5 -6
-8 -19 -8 -21 -1 -111 -72 -114 -91 -1 -5 -3 -12 -4 -16 -1 -5 -2 -11 -1 -15
0 -5 -3 -9 -9 -9 -5 -1 -14 -3 -20 -4 -5 -1 -16 -3 -24 -4 -7 0 -39 -19 -71
-40 -34 -23 -75 -42 -100 -46 -42 -6 -61 -24 -56 -52 1 -7 -4 -10 -13 -7 -9 3
-23 -7 -37 -25 -13 -17 -27 -31 -31 -31 -16 0 -78 -55 -78 -69 0 -11 4 -11 18
2 10 10 22 14 27 10 4 -5 5 -3 1 4 -4 7 3 14 16 18 13 4 40 25 60 47 34 36 42
40 70 34 18 -3 36 -13 41 -21 14 -27 37 -17 37 15 0 17 4 38 9 48 5 9 12 25
15 35 12 38 82 57 201 55 104 -2 106 -2 25 -5 -94 -4 -113 -15 -118 -68 -1
-16 -9 -47 -17 -68 -32 -82 -5 -92 50 -17 20 28 42 51 48 51 7 1 24 3 40 5 66
7 8 -50 -111 -110 -39 -20 -52 -32 -48 -42 3 -9 6 -18 6 -20 0 -11 26 -2 44
15 31 29 70 36 90 16 13 -13 14 -20 5 -31 -6 -8 -8 -14 -4 -14 4 0 2 -6 -4
-14 -13 -15 -4 -47 16 -59 7 -5 11 -12 8 -18 -4 -5 -1 -10 4 -10 21 -3 26 -4
39 -13 22 -13 130 12 200 47 44 22 74 46 102 82 48 63 56 92 36 139 -22 52 -9
45 15 -9 17 -39 18 -54 11 -118 -15 -121 -89 -235 -190 -294 -42 -25 -48 -25
-155 -20 -129 6 -174 17 -211 52 -14 13 -26 20 -26 16 0 -5 16 -23 35 -40 33
-29 67 -42 148 -56 33 -5 36 -8 22 -21 -8 -9 -15 -20 -15 -25 0 -6 -4 -8 -9
-4 -10 6 -51 -46 -51 -64 0 -6 -4 -11 -10 -11 -5 0 -10 -6 -10 -14 0 -7 -7
-19 -15 -26 -8 -7 -15 -27 -15 -45 0 -17 -3 -35 -7 -38 -12 -13 -43 -111 -43
-138 0 -32 30 -130 39 -125 3 2 7 -7 7 -20 1 -13 -2 -24 -7 -24 -5 0 -9 7 -9
16 0 8 -4 13 -9 9 -5 -3 -12 -1 -16 5 -3 5 -11 10 -16 10 -6 0 -7 -5 -3 -12 5
-7 3 -8 -6 -3 -10 6 -12 4 -7 -8 3 -9 1 -19 -5 -23 -7 -4 -9 7 -5 35 3 31 1
41 -10 41 -8 0 -11 5 -8 10 3 6 -1 17 -9 26 -9 8 -16 12 -16 8 0 -4 -11 6 -25
22 -19 23 -25 25 -25 12 0 -10 4 -18 8 -18 5 0 9 -13 9 -30 0 -18 -4 -27 -11
-23 -6 4 -4 -1 4 -11 16 -21 22 -45 14 -66 -4 -13 -6 -13 -14 0 -6 8 -10 10
-10 4 0 -18 -29 -12 -36 8 -5 18 -44 45 -44 31 0 -5 9 -26 21 -48 20 -38 21
-39 3 -53 -18 -14 -18 -14 -1 -8 13 4 17 2 14 -6 -2 -7 -12 -12 -21 -10 -14 3
-16 -1 -12 -16 4 -12 0 -26 -9 -36 -15 -15 -15 -20 -1 -64 9 -27 26 -59 38
-71 17 -19 18 -25 7 -32 -10 -6 -10 -9 -1 -9 6 0 12 -7 12 -16 0 -9 5 -12 11
-8 8 5 10 -2 6 -22 -4 -25 -3 -26 8 -11 7 9 17 17 24 17 14 0 15 -27 1 -35 -5
-3 2 -17 17 -31 14 -13 23 -24 19 -24 -9 0 34 -81 50 -95 6 -5 14 -20 17 -32
5 -21 4 -21 -19 -6 -29 19 -30 9 -4 -39 14 -28 17 -43 10 -60 -6 -17 -9 -19
-9 -5 -1 21 -19 23 -27 2 -5 -11 -18 -6 -64 25 -98 67 -140 134 -140 226 0 44
-12 37 -30 -20 -9 -29 -10 -40 -1 -46 9 -5 8 -10 -3 -19 -15 -13 -22 -50 -30
-156 -5 -65 -34 -161 -35 -115 0 14 6 43 14 65 16 45 19 101 7 109 -5 3 -44
-1 -88 -9 -43 -7 -101 -16 -129 -19 -27 -2 -51 -5 -52 -5 -4 -2 20 -78 32
-101 7 -14 15 -37 19 -52 5 -22 3 -28 -11 -29 -11 0 -13 -3 -5 -6 6 -2 12 -11
12 -19 0 -7 6 -11 14 -8 8 3 17 1 21 -5 3 -6 2 -11 -3 -11 -5 0 -9 -6 -9 -14
0 -8 7 -11 18 -9 10 3 22 -3 28 -16 11 -19 9 -20 -19 -15 -23 5 -30 3 -30 -9
0 -12 8 -15 30 -12 17 2 28 0 25 -5 -3 -5 8 -23 25 -42 29 -31 29 -33 10 -40
-20 -7 -18 -38 2 -38 5 0 6 -4 3 -10 -4 -6 6 -10 22 -10 29 0 37 -9 79 -87 13
-24 19 -45 14 -48 -10 -6 -14 1 -11 19 1 5 -8 6 -21 2 -13 -3 -29 -6 -36 -6
-7 0 -10 -5 -6 -11 3 -6 15 -8 26 -6 10 3 31 -1 46 -9 15 -8 21 -14 15 -14 -7
0 -13 -7 -13 -15 0 -8 5 -15 10 -15 6 0 10 -8 10 -18 0 -26 11 -34 27 -21 17
14 17 -3 1 -20 -11 -11 -9 -12 10 -6 16 5 24 2 29 -12 3 -10 23 -34 44 -55 21
-20 45 -52 53 -72 8 -20 22 -39 29 -42 9 -3 13 -13 10 -25 -3 -10 -1 -19 5
-19 13 0 72 -49 72 -60 0 -4 -13 -6 -30 -4 -16 2 -30 -1 -30 -6 0 -6 -6 -10
-14 -10 -7 0 -22 -12 -32 -27 -9 -16 -32 -46 -51 -68 -18 -22 -50 -63 -71 -91
-20 -28 -62 -73 -92 -99 -56 -48 -294 -175 -328 -175 -23 0 -39 34 -48 102 -4
29 -27 103 -51 163 -25 61 -68 180 -96 265 -28 85 -56 160 -62 166 -6 6 -60
14 -120 18 -168 12 -175 13 -196 32 -30 27 -125 28 -163 1 -26 -18 -27 -21
-12 -32 15 -11 15 -13 1 -19 -14 -5 -19 6 -18 42 1 6 -5 12 -13 12 -8 0 -14
-7 -14 -15 0 -12 -4 -13 -18 -4 -14 9 -27 7 -58 -9 -27 -14 -45 -17 -55 -11
-8 5 -18 9 -24 9 -5 0 -4 -4 4 -9 11 -7 8 -14 -15 -35 -16 -14 -37 -26 -48
-26 -25 0 -82 -50 -78 -68 2 -8 -6 -21 -18 -29 -16 -11 -19 -18 -10 -23 21
-13 1 -29 -30 -25 -17 2 -30 -1 -30 -6 0 -6 3 -8 8 -6 4 3 14 -2 22 -11 13
-14 12 -15 -3 -9 -11 4 -24 0 -35 -11 -17 -17 -19 -17 -37 0 -23 22 -26 22
-51 3 -16 -13 -16 -14 -1 -9 9 3 17 1 17 -5 0 -6 -6 -11 -12 -11 -23 0 -99
-87 -92 -104 4 -11 1 -16 -10 -16 -12 0 -15 -7 -12 -24 3 -18 1 -23 -10 -19
-9 3 -14 -2 -15 -16 -1 -12 -2 -27 -3 -33 -1 -7 2 -21 6 -31 6 -12 4 -19 -7
-23 -12 -5 -13 -10 -4 -20 6 -8 15 -11 20 -8 5 3 9 -2 9 -11 0 -12 -6 -15 -22
-10 -16 4 -19 3 -9 -3 8 -6 9 -12 3 -16 -6 -3 -8 -19 -6 -34 3 -15 7 -37 8
-50 2 -12 6 -25 9 -29 4 -3 7 -17 7 -30 0 -15 6 -23 18 -24 15 0 15 -1 -2 -8
-18 -7 -18 -8 -3 -14 9 -3 17 -15 17 -26 0 -11 7 -27 16 -36 14 -13 15 -21 5
-41 -13 -30 -7 -45 17 -38 14 5 13 2 -3 -11 -17 -14 -18 -17 -5 -25 8 -5 20
-10 25 -10 6 0 0 -9 -13 -20 -23 -19 -16 -35 12 -24 9 4 16 1 16 -6 0 -6 -9
-14 -20 -17 -18 -5 -18 -7 -3 -29 8 -13 11 -24 7 -24 -5 0 -10 -20 -11 -45 -1
-35 3 -47 18 -55 10 -6 19 -18 19 -28 0 -12 5 -9 18 11 18 29 32 35 32 15 1
-8 6 -6 14 4 7 10 27 21 44 24 28 6 32 4 37 -22 4 -16 13 -45 20 -64 18 -45
35 -110 29 -110 -3 0 2 -10 10 -22 9 -12 16 -34 16 -48 0 -14 12 -69 26 -121
15 -51 29 -113 31 -136 3 -24 9 -43 14 -43 5 0 9 -16 9 -35 0 -30 -3 -35 -24
-35 -13 0 -27 6 -30 13 -3 6 -3 1 0 -13 4 -14 9 -27 13 -30 6 -5 13 -30 8 -30
-1 0 -49 46 -107 103 -72 69 -153 134 -253 201 -81 55 -152 105 -158 112 -7 8
-2 13 16 18 24 6 36 26 15 26 -5 0 -10 6 -10 14 0 9 7 12 20 9 13 -3 22 0 25
11 3 9 8 24 12 34 13 36 13 52 -2 52 -12 0 -14 -7 -9 -26 6 -24 5 -25 -15 -15
-24 13 -28 3 -10 -32 l12 -22 -20 20 c-11 11 -19 23 -16 28 2 4 -5 7 -16 7
-24 0 -27 -10 -9 -28 18 -18 -7 -16 -37 4 -23 15 -25 15 -26 -2 -1 -11 -1 -27
0 -36 1 -10 -2 -18 -8 -18 -15 0 -41 30 -41 47 0 11 -6 14 -25 9 -18 -5 -25
-2 -25 9 0 19 23 19 63 -1 l32 -17 -23 26 c-25 26 -60 30 -85 9 -10 -9 -18 -8
-33 3 -22 17 -54 20 -54 5 0 -6 11 -16 25 -22 14 -6 25 -18 25 -25 0 -9 6 -12
19 -8 13 4 20 0 24 -15 3 -11 1 -20 -4 -20 -5 0 -9 -7 -9 -15 0 -12 10 -14 45
-10 29 3 44 1 40 -5 -4 -6 -10 -8 -15 -5 -4 2 -10 -6 -12 -20 -4 -20 -1 -25
14 -25 19 0 19 -1 -3 -25 -28 -29 -35 -30 -56 -9 -15 14 -17 14 -26 -1 -9 -16
-4 -29 14 -31 5 -1 14 -2 19 -3 6 0 10 -9 11 -18 0 -11 3 -13 6 -5 8 20 22 14
16 -8 -3 -11 -1 -20 4 -20 6 0 8 -11 5 -25 -2 -15 0 -25 8 -25 7 0 9 -8 5 -20
-4 -11 -7 -30 -9 -43 -1 -13 -6 -29 -11 -36 -5 -9 -4 -12 2 -8 6 4 13 0 17 -8
3 -10 -1 -15 -13 -15 -21 0 -33 22 -25 45 4 8 0 22 -7 31 -11 13 -9 19 10 34
16 11 20 20 12 24 -6 4 -11 5 -11 1 0 -3 -9 -1 -19 5 -15 7 -24 6 -36 -6 -9
-9 -19 -13 -23 -10 -3 4 -1 10 5 14 14 9 27 72 15 72 -6 0 -13 -6 -15 -12 -3
-7 -3 2 0 20 3 20 1 32 -5 32 -6 0 -9 7 -6 15 5 13 -1 14 -40 10 -26 -3 -52
-3 -58 1 -50 31 -84 -9 -41 -46 17 -14 22 -25 15 -32 -16 -16 -46 -16 -58 0
-9 12 -11 11 -9 -8 2 -26 -24 -60 -40 -51 -5 2 -4 -3 4 -12 7 -9 17 -15 21
-12 5 3 6 -4 3 -15 -6 -23 -14 -25 -31 -8 -14 14 -16 0 -3 -21 5 -7 13 -11 19
-7 5 3 34 1 63 -4 47 -9 56 -8 67 7 11 15 14 16 22 3 12 -19 -14 -34 -55 -32
-16 1 -41 -7 -54 -17 l-23 -18 29 2 c31 2 61 -19 43 -30 -6 -4 -19 -4 -29 0
-11 3 -24 -1 -32 -12 -13 -16 -12 -17 4 -4 13 10 20 11 30 2 8 -6 18 -7 22 -3
5 4 5 1 0 -6 -5 -9 -11 -10 -17 -4 -12 12 -38 5 -38 -10 0 -13 26 -38 39 -38
5 0 15 8 20 17 9 16 10 16 11 -4 0 -22 31 -40 50 -28 6 4 17 1 25 -5 8 -6 18
-9 23 -6 5 3 22 -2 38 -10 16 -9 45 -16 64 -16 23 0 45 -8 63 -24 28 -24 28
-24 10 -56 -9 -18 -16 -41 -14 -52 2 -11 -2 -16 -8 -12 -7 5 -11 -2 -11 -16 0
-13 -4 -30 -10 -38 -5 -9 -5 -19 2 -27 6 -7 6 -13 2 -13 -14 0 -37 -59 -30
-77 4 -9 2 -19 -4 -23 -6 -4 -13 -17 -15 -31 -3 -13 -9 -33 -14 -44 -20 -44
-40 -112 -46 -160 -4 -27 -14 -63 -23 -78 -16 -27 -16 -29 1 -39 18 -9 18 -11
1 -29 -9 -10 -13 -19 -8 -19 5 0 18 -14 27 -30 10 -17 13 -30 8 -30 -6 0 -11
4 -11 9 0 5 -10 7 -22 3 l-21 -5 21 -18 c28 -22 28 -25 -3 -33 -21 -5 -24 -10
-16 -24 10 -19 58 -23 69 -5 17 24 72 25 72 1 0 -6 -11 -7 -25 -4 -17 4 -25 2
-25 -7 0 -7 -16 -19 -35 -25 -31 -12 -33 -15 -25 -38 8 -19 6 -26 -5 -30 -18
-7 -35 3 -35 22 0 8 -4 14 -9 14 -9 0 -7 -38 3 -47 7 -7 40 -6 58 2 13 5 17 2
15 -14 -1 -12 -5 -21 -9 -21 -4 0 -8 -4 -8 -10 0 -18 30 -11 30 8 1 27 23 48
51 47 32 0 27 -22 -6 -31 -13 -3 -22 -11 -19 -17 2 -7 -6 -17 -18 -22 -26 -11
-77 7 -79 28 0 7 -4 3 -8 -8 -5 -12 -3 -24 4 -30 21 -17 25 -41 6 -41 -57 -1
-73 -5 -68 -18 7 -18 -24 -31 -34 -14 -4 7 -11 9 -15 5 -4 -3 -1 -13 6 -22 14
-16 40 -16 53 0 4 6 5 -2 1 -18 -5 -23 -4 -26 11 -21 16 7 17 6 1 -18 -13 -21
-14 -27 -4 -31 10 -4 10 -6 1 -6 -18 -1 -16 -21 2 -21 22 0 18 -12 -12 -36
-24 -19 -26 -24 -14 -38 11 -14 10 -17 -10 -25 -13 -5 -27 -7 -31 -4 -4 2 -5
-3 -2 -11 4 -11 0 -16 -11 -16 -15 0 -15 -3 -5 -15 7 -9 10 -18 6 -22 -3 -3
-6 -1 -6 6 0 7 -4 10 -9 7 -5 -4 -12 0 -14 6 -4 10 -8 9 -16 -2 -15 -22 -13
-40 5 -40 8 0 12 -5 9 -10 -5 -8 -11 -7 -21 1 -13 10 -18 6 -15 -13 0 -5 -4
-8 -10 -8 -8 0 -8 -4 0 -14 10 -12 8 -17 -8 -26 -15 -8 -21 -8 -21 0 0 6 -5 8
-11 4 -6 -3 -8 -17 -5 -29 4 -17 1 -25 -11 -28 -10 -3 247 -5 570 -6 l588 -1
-2 88 c-3 138 0 192 10 192 6 0 11 -21 13 -47 2 -32 7 -47 16 -45 9 2 11 -16
7 -75 -3 -43 -8 -86 -11 -95 -5 -17 5 -18 113 -17 88 1 110 3 87 10 -29 8 -56
49 -33 49 5 0 9 5 9 10 0 6 -6 10 -14 10 -22 0 -50 61 -34 72 10 6 10 8 -1 8
-8 0 -11 6 -7 16 4 9 1 23 -5 30 -6 8 -13 31 -16 51 -3 21 -9 43 -14 49 -5 6
-7 13 -4 16 7 7 19 206 18 308 0 47 -6 108 -13 137 -15 61 1 113 34 113 15 0
16 3 6 15 -10 12 -10 15 4 15 9 0 16 -8 16 -20 0 -15 7 -20 24 -20 26 0 47
-21 28 -28 -7 -2 -12 -11 -12 -19 0 -11 8 -14 30 -11 22 3 30 0 30 -10 0 -12
3 -12 19 2 17 16 24 16 56 5 29 -11 40 -11 56 -1 16 10 20 10 25 -3 4 -8 15
-15 25 -15 12 0 16 -5 13 -15 -4 -8 -1 -21 5 -29 6 -7 8 -15 5 -18 -10 -11
-12 -78 -3 -84 6 -3 6 -10 1 -17 -10 -13 -4 -87 7 -87 3 0 6 -18 6 -40 0 -22
-4 -40 -8 -40 -5 0 -4 -6 2 -14 9 -11 9 -19 -1 -35 -11 -18 -10 -23 7 -35 16
-11 17 -16 7 -29 -11 -12 -11 -17 0 -24 15 -9 19 -63 4 -63 -6 0 -5 -5 1 -11
8 -8 8 -18 1 -35 -7 -15 -8 -28 -1 -36 5 -7 9 -31 8 -53 -2 -25 4 -47 13 -58
13 -15 14 -20 3 -27 -8 -4 -11 -15 -8 -24 6 -14 32 -16 202 -16 l195 0 0 103
c1 146 14 238 37 251 38 23 188 43 378 51 72 3 155 8 185 10 30 3 208 12 395
21 430 20 475 23 475 36 0 19 26 35 77 45 29 5 58 6 66 1 9 -4 18 -5 21 0 3 4
28 8 55 7 28 -1 51 3 51 8 0 4 5 5 12 1 7 -4 66 -9 132 -11 106 -3 122 -5 142
-24 18 -16 31 -20 56 -16 52 10 154 16 438 28 146 7 283 13 305 15 248 17
1091 44 1355 44 117 -1 119 1 86 91 -71 190 -79 218 -85 287 0 7 -5 11 -10 8
-10 -7 -41 76 -41 109 0 34 -53 46 -197 46 -71 0 -163 -3 -206 -6 -63 -4 -82
-2 -94 11 -8 8 -29 18 -45 21 -16 3 -37 16 -47 29 -10 13 -24 24 -30 24 -6 0
-11 7 -11 15 0 8 -4 15 -9 15 -17 0 -21 61 -6 83 8 12 15 29 15 39 0 10 5 18
10 18 15 0 12 26 -4 39 -18 15 -9 51 13 52 10 0 11 2 4 6 -19 7 -16 50 5 62
16 10 16 10 0 11 -10 0 -18 7 -18 16 0 8 -4 12 -10 9 -6 -3 -10 4 -10 16 0 12
-7 27 -16 34 -15 10 -15 13 1 28 11 12 14 24 9 35 -4 9 -8 43 -9 75 -1 48 2
57 17 57 10 0 18 5 18 10 0 6 -21 10 -46 10 -29 0 -43 -4 -39 -10 4 -6 1 -18
-6 -26 -10 -12 -14 -13 -28 0 -9 7 -26 17 -38 20 -14 5 -23 15 -23 27 0 10 -4
19 -10 19 -5 0 -10 5 -10 10 0 6 7 10 15 10 8 0 15 7 15 16 0 12 -7 15 -25 12
-26 -5 -34 9 -15 28 7 7 7 21 -1 43 -6 17 -9 45 -6 60 4 17 0 36 -9 49 -9 14
-11 23 -4 27 6 4 8 15 5 25 -3 10 -1 21 5 25 19 12 11 35 -12 35 -18 0 -20 2
-9 9 17 11 17 91 0 102 -8 4 -7 8 2 11 11 4 10 11 -5 37 -12 22 -15 36 -8 43
7 7 4 16 -10 30 -15 15 -17 22 -8 34 8 8 9 21 4 31 -4 10 -9 29 -9 43 -2 48
-18 130 -25 130 -4 0 -4 17 1 37 6 27 4 46 -6 66 -21 41 -5 77 34 77 16 0 31
4 33 9 2 4 28 11 58 15 45 5 61 3 88 -14 l32 -20 0 -88 c0 -73 3 -92 18 -105
10 -10 24 -17 31 -17 21 0 75 -50 91 -85 8 -18 41 -58 73 -90 31 -31 57 -63
57 -70 0 -16 -89 -142 -164 -233 -104 -125 -109 -132 -103 -139 8 -8 126 17
133 28 3 5 15 9 27 9 12 0 35 7 51 15 21 11 32 12 42 5 9 -9 13 -6 16 11 3 25
77 68 115 69 12 0 26 7 31 16 12 22 23 -106 15 -180 -7 -68 12 -203 39 -276
27 -71 69 -162 83 -176 17 -18 68 8 101 51 25 33 29 49 35 139 4 55 12 117 17
136 33 111 42 147 41 165 0 13 -21 35 -55 60 -69 49 -101 120 -84 183 1 4 3
50 4 102 1 77 5 104 24 142 31 62 32 137 3 201 -11 27 -21 59 -21 72 0 13 -5
27 -11 31 -18 11 -4 105 22 149 21 36 24 52 25 185 1 124 5 159 29 245 15 55
30 105 34 110 31 43 39 165 16 254 -20 80 -26 158 -29 392 l-2 207 26 38 c14
22 36 43 48 49 12 5 22 13 22 16 0 3 15 5 34 4 41 -4 43 3 41 95 -2 87 21 222
40 236 8 6 15 14 15 18 0 11 42 68 81 111 21 22 42 59 49 83 6 23 15 42 19 42
5 0 11 18 14 39 6 51 60 102 123 119 55 15 49 31 -15 39 -31 4 -41 10 -41 23
0 10 -5 20 -11 22 -5 2 -13 24 -15 48 -7 53 -28 113 -53 149 -20 28 -32 79
-37 153 -1 26 -17 78 -33 117 -33 73 -50 138 -72 259 -8 47 -17 72 -26 72 -8
0 -13 13 -14 35 -1 19 -3 40 -4 45 -1 6 -3 17 -4 25 0 8 -12 17 -25 21 -35 8
-50 45 -42 101 6 46 5 48 -38 89 -48 44 -86 100 -86 125 0 9 11 28 24 42 13
14 26 43 29 64 2 21 12 65 22 98 13 45 14 64 6 77 -6 10 -11 25 -11 33 0 8 -5
15 -10 15 -26 0 14 40 49 50 33 9 41 17 55 54 18 47 14 87 -11 107 -11 10 -24
10 -56 2 -55 -15 -73 -4 -91 57 -8 28 -22 60 -30 72 -11 15 -13 35 -9 67 7 57
25 92 82 156 39 45 43 53 38 91 -3 32 -13 49 -39 73 -69 60 -96 145 -89 279 1
28 54 62 99 62 19 0 32 5 32 13 0 9 2 9 9 -1 6 -10 10 -9 14 7 3 12 1 24 -5
27 -5 3 -7 12 -4 20 5 12 -88 14 -619 14 l-625 0 0 -320 0 -321 -26 -26 -25
-25 -157 6 c-159 7 -369 23 -652 51 -85 8 -204 20 -265 25 -352 33 -448 47
-506 75 -55 26 -69 59 -69 162 0 48 -3 152 -7 231 -5 117 -9 142 -21 142 -13
0 -14 -31 -9 -244 8 -298 19 -278 -146 -284 -105 -4 -186 2 -587 43 -80 8
-291 28 -470 45 -534 50 -591 58 -618 83 -45 42 -52 68 -53 216 -2 141 -2 141
-26 141 l-23 0 0 -150z m1736 -499 c-3 -5 2 -11 12 -13 10 -3 19 -13 19 -22 0
-21 -13 -21 -25 0 -13 23 -26 0 -14 -23 14 -28 9 -76 -8 -81 -13 -5 -13 -3 -1
12 12 15 11 19 -8 37 -14 13 -20 27 -16 38 5 12 3 13 -5 4 -9 -8 -9 -20 1 -47
14 -38 3 -66 -21 -51 -8 5 -6 11 6 20 17 12 16 15 -9 45 -15 17 -27 35 -27 40
0 15 30 32 50 27 10 -3 24 1 31 9 13 15 23 19 15 5z m307 -27 c9 -4 17 -11 17
-16 0 -6 -7 -7 -16 -4 -9 3 -21 3 -27 -1 -18 -11 -57 -13 -57 -2 0 5 12 9 26
9 20 0 25 4 20 16 -4 10 -2 14 6 10 7 -3 21 -9 31 -12z m119 6 c18 6 33 4 45
-6 17 -13 17 -13 -4 -14 -15 0 -23 -6 -23 -17 0 -15 -1 -15 -18 0 -10 10 -26
17 -34 17 -9 0 -21 7 -28 15 -11 13 -10 14 11 7 13 -5 36 -6 51 -2z m-272 -28
c0 -15 -2 -15 -10 -2 -13 20 -13 33 0 25 6 -3 10 -14 10 -23z m61 -7 c-3 -29
-16 -45 -36 -45 -5 1 -2 7 8 14 15 12 16 18 8 35 -15 27 -14 33 7 29 13 -2 16
-11 13 -33z m-31 -1 c0 -8 -5 -12 -10 -9 -6 4 -8 11 -5 16 9 14 15 11 15 -7z
m120 -4 c0 -5 -2 -10 -4 -10 -3 0 -8 5 -11 10 -3 6 -1 10 4 10 6 0 11 -4 11
-10z m55 -10 c3 -5 2 -10 -4 -10 -5 0 -13 5 -16 10 -3 6 -2 10 4 10 5 0 13 -4
16 -10z m-648 -50 c-14 -11 -31 -20 -39 -20 -7 0 1 9 17 20 39 26 55 26 22 0z
m148 -61 c-14 -30 -24 -47 -22 -39 3 8 0 23 -5 34 -7 12 -7 16 0 12 6 -3 19 7
28 24 28 46 27 29 -1 -31z m107 9 c-7 -7 -12 -8 -12 -2 0 14 12 26 19 19 2 -3
-1 -11 -7 -17z m-202 -8 c0 -5 -7 -7 -15 -4 -8 4 -15 8 -15 10 0 2 7 4 15 4 8
0 15 -4 15 -10z m-472 -720 c-7 -10 -14 -18 -15 -16 -6 6 9 36 18 36 5 0 4 -9
-3 -20z m908 -398 c15 -9 37 -52 31 -59 -3 -2 -24 -7 -46 -10 -33 -5 -40 -3
-36 8 26 74 28 77 51 61z m-765 -68 c9 -12 6 -14 -20 -14 -19 0 -31 5 -31 13
0 18 36 19 51 1z m446 -20 c-3 -3 -12 -4 -19 -1 -8 3 -5 6 6 6 11 1 17 -2 13
-5z m1253 -34 c0 -6 -7 -13 -15 -16 -20 -8 -48 3 -40 16 8 13 55 13 55 0z
m-878 -19 c-4 -10 -31 -44 -60 -76 l-52 -57 6 58 c7 69 29 94 80 94 28 0 32
-3 26 -19z m788 -192 c-10 -22 -10 -22 -6 -1 3 15 -1 22 -12 23 -15 1 -15 2 1
6 14 4 17 18 19 86 l2 82 3 -86 c2 -47 -1 -96 -7 -110z m-145 161 c3 -5 1 -10
-4 -10 -6 0 -11 5 -11 10 0 6 2 10 4 10 3 0 8 -4 11 -10z m-658 -102 c37 -41
37 -76 -1 -192 -32 -96 -35 -111 -26 -157 6 -29 10 -63 10 -78 0 -23 -2 -22
-19 14 -22 48 -63 88 -94 91 -12 1 -39 -3 -59 -8 -31 -9 -37 -16 -40 -41 -4
-42 -24 -45 -43 -7 -11 22 -14 44 -9 75 5 37 16 53 70 104 43 41 75 83 99 130
46 93 74 110 112 69z m923 -48 c-20 -13 -43 -13 -35 0 3 6 16 10 28 10 18 0
19 -2 7 -10z m-153 -103 c-14 -23 -38 -53 -54 -67 l-28 -25 23 26 c26 30 59
85 69 114 4 11 8 14 11 7 2 -7 -7 -31 -21 -55z m253 -47 c19 -17 38 -20 109
-20 47 0 128 -5 180 -10 158 -15 166 -31 177 -393 3 -109 8 -197 9 -195 2 2 6
79 10 172 8 204 16 233 71 252 21 8 40 14 41 14 13 1 34 -60 43 -118 12 -88
28 -668 35 -1287 l5 -450 77 -41 c42 -23 89 -56 105 -75 41 -49 96 -107 117
-121 9 -7 49 -49 88 -93 52 -60 72 -90 77 -120 6 -40 6 -40 -11 -18 -10 12
-26 33 -36 47 -11 16 -23 23 -33 19 -10 -4 -17 2 -21 16 -3 11 -9 18 -14 15
-5 -3 -6 2 -3 10 4 11 0 16 -12 17 -11 1 -23 2 -29 4 -5 1 -16 3 -22 3 -7 1
-13 8 -13 15 0 8 -12 19 -27 26 -20 9 -23 15 -15 23 19 19 14 38 -11 38 -13 0
-28 5 -35 12 -9 9 -12 9 -12 1 0 -7 5 -15 10 -18 6 -3 10 -13 10 -22 0 -11 -6
-14 -25 -9 -14 4 -35 2 -46 -5 -24 -12 -41 -3 -19 11 10 7 11 10 3 10 -7 0
-13 5 -13 11 0 6 6 9 14 6 20 -8 28 4 15 19 -7 8 -21 11 -35 8 -18 -5 -24 -2
-24 10 0 8 -9 20 -19 26 -19 10 -22 25 -8 47 10 16 -12 28 -26 14 -13 -13 -31
-15 -23 -2 7 11 -22 71 -35 71 -5 0 -19 11 -31 25 -12 14 -44 39 -70 56 -45
29 -51 30 -80 18 -24 -10 -33 -10 -36 -1 -2 7 -9 12 -17 12 -7 0 -18 7 -25 15
-18 21 -28 19 -32 -7 -3 -26 -31 -27 -55 -2 -18 17 -60 18 -66 2 -3 -7 -10 -1
-16 15 -7 18 -15 26 -23 21 -8 -5 -9 -9 -1 -11 6 -2 9 -12 6 -22 -3 -10 0 -22
6 -25 14 -9 14 -26 1 -26 -5 0 -12 10 -15 23 -3 12 -25 41 -48 65 -68 67 -94
86 -190 134 -10 5 -27 6 -38 3 -27 -9 -49 6 -23 16 16 6 15 8 -8 8 -21 1 -28
6 -28 21 0 14 -7 20 -22 20 -22 1 -22 1 -5 15 18 13 16 15 -21 34 -28 14 -43
17 -48 10 -4 -7 -13 2 -21 20 -15 30 -45 41 -58 21 -10 -17 -21 -12 -90 43
l-66 52 7 95 c5 80 3 104 -14 154 -22 64 -20 78 15 116 13 14 23 29 23 33 0 5
13 26 29 46 16 20 43 72 61 116 19 44 40 90 47 101 8 12 18 50 23 85 16 103
31 152 57 180 13 14 20 29 16 34 -5 4 -3 5 4 1 15 -8 96 111 118 174 17 48 41
196 50 315 6 65 15 92 31 95 1 0 11 -9 24 -20z m-1240 -258 c60 -30 62 -32 50
-47 -7 -8 -9 -18 -6 -24 4 -6 -15 -8 -49 -5 -43 4 -57 2 -61 -10 -5 -14 -8
-14 -21 -1 -13 13 -11 20 14 60 15 24 30 44 33 45 3 0 21 -8 40 -18z m-160
-268 c0 -2 -7 -4 -15 -4 -8 0 -15 4 -15 10 0 5 7 7 15 4 8 -4 15 -8 15 -10z
m123 -102 c-4 -9 -11 -20 -17 -24 -7 -4 -1 -17 14 -33 21 -23 26 -24 36 -11
14 20 22 12 17 -19 -3 -15 -10 -22 -19 -18 -8 3 -14 0 -14 -6 0 -6 -11 -16
-25 -21 -19 -7 -25 -17 -27 -42 -2 -49 -1 -61 7 -80 11 -28 -27 -23 -55 7 -12
13 -27 22 -31 19 -5 -3 -6 1 -3 9 3 8 -2 17 -10 20 -9 4 -16 13 -16 21 0 8 -5
16 -10 18 -6 2 -12 14 -15 28 -3 14 -12 31 -22 37 -14 11 -15 17 -3 52 21 64
22 65 79 54 28 -6 51 -7 51 -2 0 8 49 17 62 12 4 -2 4 -11 1 -21z m24 -4 c-3
-8 -6 -5 -6 6 -1 11 2 17 5 13 3 -3 4 -12 1 -19z m-487 -56 c0 -1 -9 2 -20 8
-11 6 -20 15 -20 20 0 6 9 2 20 -7 11 -10 20 -19 20 -21z m-36 -8 c9 -8 16
-18 16 -21 0 -4 -3 -3 -7 0 -3 4 -12 -1 -20 -11 -8 -9 -12 -11 -8 -5 3 7 1 22
-5 33 -13 24 2 27 24 4z m-94 -104 c-6 -12 -14 -20 -17 -17 -2 3 1 14 8 26 7
11 15 18 17 16 2 -2 -2 -13 -8 -25z m50 -30 c0 -5 -7 -10 -16 -10 -8 0 -12 5
-9 10 3 6 10 10 16 10 5 0 9 -4 9 -10z m85 -30 c-3 -5 -11 -10 -16 -10 -6 0
-7 5 -4 10 3 6 11 10 16 10 6 0 7 -4 4 -10z m-110 -30 c4 -6 11 -7 17 -4 7 4
8 2 4 -4 -5 -9 -13 -9 -27 -2 -10 6 -19 13 -19 15 0 9 19 5 25 -5z m535 -34
c0 -2 -7 -9 -15 -16 -13 -11 -14 -10 -9 4 5 14 24 23 24 12z m-35 -576 c3 -5
1 -10 -4 -10 -6 0 -11 5 -11 10 0 6 2 10 4 10 3 0 8 -4 11 -10z m-8 -56 c-3
-3 -12 -4 -19 -1 -8 3 -5 6 6 6 11 1 17 -2 13 -5z m-627 -374 c0 -5 -2 -10 -4
-10 -3 0 -8 5 -11 10 -3 6 -1 10 4 10 6 0 11 -4 11 -10z m1821 -68 c-7 -2 -23
5 -35 17 l-21 22 35 -17 c20 -10 29 -19 21 -22z m31 -4 c-7 -7 -12 -8 -12 -2
0 6 3 14 7 17 3 4 9 5 12 2 2 -3 -1 -11 -7 -17z m499 -11 c-12 -12 -45 -1 -37
12 3 5 15 7 27 4 13 -4 17 -9 10 -16z m-141 -48 c0 -5 -4 -9 -10 -9 -5 0 -10
7 -10 16 0 8 5 12 10 9 6 -3 10 -10 10 -16z m-3230 -5 c0 -8 -5 -12 -10 -9 -6
4 -8 11 -5 16 9 14 15 11 15 -7z m-161 -41 c8 -15 8 -23 1 -23 -5 0 -10 7 -10
16 0 10 -6 14 -17 11 -10 -3 -31 -8 -48 -12 l-30 -6 23 16 c13 9 29 14 37 11
8 -3 17 -1 21 5 7 12 7 12 23 -18z m-119 -7 c0 -3 -4 -8 -10 -11 -5 -3 -10 -1
-10 4 0 6 5 11 10 11 6 0 10 -2 10 -4z m-104 -75 c-7 -10 -44 -3 -52 10 -3 5
7 4 21 -1 24 -9 26 -8 20 12 -5 20 -4 21 5 5 6 -9 9 -21 6 -26z m257 24 c-3
-9 -8 -14 -10 -11 -3 3 -2 9 2 15 9 16 15 13 8 -4z m-285 -83 c2 -7 -2 -10
-12 -6 -9 3 -16 11 -16 16 0 13 23 5 28 -10z m-43 -52 c3 -5 1 -10 -4 -10 -6
0 -11 5 -11 10 0 6 2 10 4 10 3 0 8 -4 11 -10z m-56 -36 c-9 -11 -10 -17 -1
-23 7 -4 8 -12 2 -21 -8 -12 -10 -11 -11 5 0 15 -2 16 -7 5 -7 -15 -32 -26
-32 -14 0 3 12 19 27 35 30 31 44 40 22 13z m1906 -58 c22 -24 61 -57 87 -75
46 -31 84 -83 74 -100 -7 -10 -104 -2 -128 11 -10 5 -18 14 -18 21 0 7 -19 44
-43 83 -24 38 -42 75 -39 82 5 15 -3 15 -29 2 -13 -7 -19 -7 -19 0 0 5 7 10
15 10 8 0 15 5 15 11 0 21 45 -3 85 -45z m-1925 -70 c0 -3 -4 -8 -10 -11 -5
-3 -10 -1 -10 4 0 6 5 11 10 11 6 0 10 -2 10 -4z m-213 -76 c-3 -11 -1 -20 4
-20 5 0 9 -4 9 -10 0 -19 -17 -10 -28 14 -8 19 -8 26 1 30 19 7 20 7 14 -14z
m310 -5 c0 -8 -4 -15 -9 -15 -10 0 -11 14 -1 23 9 10 10 9 10 -8z m4679 -170
c7 -30 -5 -70 -14 -45 -3 8 -11 21 -19 28 -19 20 -16 42 7 42 13 0 22 -9 26
-25z m-1640 -21 c19 -10 34 -26 34 -36 0 -16 8 -17 79 -12 76 6 80 5 92 -17 7
-13 14 -42 15 -64 4 -68 14 -188 20 -230 3 -22 7 -111 8 -197 0 -86 4 -159 7
-163 4 -3 3 -22 -1 -42 -8 -36 -4 -63 9 -63 4 0 5 -42 3 -92 -3 -51 -6 -111
-6 -133 l-1 -40 95 1 c467 4 708 4 835 -1 219 -8 275 -15 275 -37 0 -5 -5 -6
-12 -2 -8 5 -9 2 -5 -10 4 -10 2 -27 -4 -38 -8 -14 -8 -23 0 -27 12 -8 11 -51
-2 -69 -7 -8 -4 -18 7 -31 15 -17 16 -20 1 -34 -17 -18 -21 -56 -11 -102 10
-45 -5 -59 -61 -58 -84 1 -525 14 -613 18 -92 5 -257 6 -385 4 -56 -1 -79 2
-77 10 1 6 -5 14 -13 17 -11 5 -12 11 -4 25 8 15 6 21 -6 25 -9 4 -15 14 -13
23 1 9 -1 21 -4 27 -15 23 -25 190 -13 203 3 2 -7 13 -22 23 -36 23 -110 24
-143 1 -30 -21 -188 -25 -212 -5 -9 7 -40 15 -69 18 -30 2 -76 8 -104 12 l-49
7 2 90 c5 149 22 303 48 435 14 68 27 140 30 160 11 95 64 370 75 392 20 38
134 45 195 12z m1744 -154 c6 0 10 -11 10 -25 0 -15 7 -40 16 -57 11 -22 12
-29 3 -26 -7 2 -16 11 -20 19 -4 8 -19 37 -33 65 -31 62 -32 70 -6 44 11 -11
25 -20 30 -20z m-4665 -50 c-3 -5 0 -10 8 -10 7 0 14 -7 14 -15 0 -8 -6 -15
-14 -15 -18 0 -16 -7 8 -31 11 -11 27 -18 35 -15 8 3 14 1 14 -4 0 -6 -4 -10
-10 -10 -5 0 -14 -9 -20 -20 -6 -11 -7 -19 -1 -18 5 2 9 -1 9 -7 0 -5 -4 -9
-9 -7 -5 1 -9 -5 -9 -13 0 -14 11 -19 38 -16 19 3 14 -17 -5 -21 -22 -4 -63
13 -63 27 0 6 -7 46 -14 90 -15 84 -14 95 10 95 8 0 12 -4 9 -10z m655 -170
c53 -9 250 -7 267 3 6 4 13 3 15 -3 1 -5 23 -12 48 -15 25 -3 72 -12 105 -19
33 -8 83 -13 110 -12 28 2 56 -1 63 -7 8 -6 16 -6 25 1 14 11 150 8 169 -5 12
-7 148 -15 241 -14 28 0 37 -3 38 -17 0 -9 3 -28 5 -42 5 -31 13 -149 19 -295
2 -60 6 -139 9 -175 3 -36 8 -112 12 -170 3 -58 10 -111 16 -117 7 -9 7 -13
-1 -13 -16 0 -14 -25 4 -40 8 -7 12 -17 8 -23 -4 -6 -8 -54 -9 -107 -1 -52 -3
-105 -3 -118 l-1 -23 -292 2 c-247 1 -296 4 -316 17 -15 10 -53 17 -106 19
-77 3 -190 9 -228 12 -10 0 -18 6 -18 12 0 17 -50 53 -90 64 -19 6 -35 15 -36
20 0 6 -3 17 -6 25 -4 8 -9 26 -13 40 -3 14 -20 77 -37 140 -16 63 -30 122
-30 130 0 8 -6 49 -14 90 -15 87 -23 163 -30 315 -3 60 -9 114 -14 120 -7 9
-15 155 -10 180 1 6 3 15 5 20 1 6 3 14 3 19 1 4 12 5 25 1 12 -4 42 -10 67
-15z m-603 -87 c-1 -18 -7 -33 -14 -33 -16 0 -20 8 -28 53 l-7 38 26 -12 c21
-10 25 -18 23 -46z m-377 6 c7 -11 9 -23 6 -26 -8 -9 -36 17 -36 33 0 21 18
17 30 -7z m418 -57 c2 -7 -3 -12 -11 -12 -22 0 -27 -58 -8 -108 13 -36 13 -44
2 -51 -11 -7 -10 -11 5 -19 16 -9 17 -14 6 -32 -7 -11 -10 -25 -7 -30 3 -6 1
-18 -4 -27 -9 -16 -11 -15 -12 7 -1 14 -2 31 -2 38 1 6 -3 12 -7 12 -5 0 -5
13 0 30 5 19 5 32 -2 36 -5 3 -7 18 -3 32 4 15 1 28 -6 33 -6 4 -15 24 -18 45
-6 35 -4 40 19 51 29 13 42 12 48 -5z m-408 -12 c0 -5 -4 -10 -10 -10 -5 0
-10 5 -10 10 0 6 5 10 10 10 6 0 10 -4 10 -10z m-300 -207 c0 -3 -7 -11 -15
-19 -13 -14 -15 -13 -15 4 0 10 7 19 15 19 8 0 15 -2 15 -4z m730 -43 c0 -5
-4 -10 -10 -10 -5 0 -10 5 -10 10 0 6 5 10 10 10 6 0 10 -4 10 -10z m-7 -40
c-3 -12 -8 -19 -11 -16 -5 6 5 36 12 36 2 0 2 -9 -1 -20z m57 -41 c0 -5 -9 -9
-20 -9 -19 0 -26 11 -14 23 8 8 34 -3 34 -14z m-992 -54 c-16 -30 -17 -30 -28
-1 -6 17 -14 24 -22 20 -7 -5 -9 -2 -4 7 4 8 0 5 -8 -5 -16 -19 -16 -19 -16 2
0 24 11 27 42 11 15 -8 19 -8 14 0 -4 6 -4 16 0 22 13 21 34 -33 22 -56z m952
21 c0 -3 -4 -8 -10 -11 -5 -3 -10 -1 -10 4 0 6 5 11 10 11 6 0 10 -2 10 -4z
m-999 -59 c-10 -9 -11 -8 -5 6 3 10 9 15 12 12 3 -3 0 -11 -7 -18z m-1 -47
c-8 -5 -17 -7 -19 -4 -3 3 1 9 9 14 8 5 17 7 19 4 3 -3 -1 -9 -9 -14z m50 4
c0 -8 -4 -12 -10 -9 -5 3 -10 10 -10 16 0 5 5 9 10 9 6 0 10 -7 10 -16z m947
-16 c-3 -8 -6 -5 -6 6 -1 11 2 17 5 13 3 -3 4 -12 1 -19z m40 -32 c-7 -18 -27
-22 -27 -6 0 6 4 10 10 10 5 0 7 8 3 18 -5 13 -3 15 7 5 7 -6 10 -19 7 -27z
m-911 -75 c-4 -6 -14 -11 -22 -11 -12 0 -12 3 -2 20 7 11 16 16 21 11 5 -5 6
-14 3 -20z m899 9 c3 -5 1 -10 -4 -10 -6 0 -11 5 -11 10 0 6 2 10 4 10 3 0 8
-4 11 -10z m-935 -35 c0 -3 -9 -15 -20 -27 -22 -24 -26 -18 -8 12 12 19 28 27
28 15z m959 -65 c7 0 9 -4 6 -10 -10 -16 -42 -11 -49 8 -3 9 -9 24 -12 32 -4
9 4 5 18 -7 13 -13 30 -23 37 -23z m-893 16 c15 -16 18 -26 6 -26 -4 0 -13 9
-20 20 -14 23 -7 26 14 6z m934 -6 c0 -5 -4 -10 -10 -10 -5 0 -10 5 -10 10 0
6 5 10 10 10 6 0 10 -4 10 -10z m-2 -98 c6 -18 -15 -14 -22 4 -4 10 -1 14 6
12 6 -2 14 -10 16 -16z m-48 -12 c0 -5 -7 -7 -15 -4 -8 4 -12 10 -9 15 6 11
24 2 24 -11z m-650 -56 c0 -11 -4 -10 -19 3 -11 9 -18 20 -15 25 8 12 34 -11
34 -28z m-60 16 c12 -8 12 -10 1 -10 -8 0 -11 -7 -8 -19 3 -13 1 -18 -9 -14
-7 2 -10 11 -7 19 3 8 -1 14 -10 14 -9 0 -19 5 -22 10 -8 13 35 13 55 0z m-70
-10 c0 -5 -4 -10 -10 -10 -5 0 -10 5 -10 10 0 6 5 10 10 10 6 0 10 -4 10 -10z
m170 -4 c0 -3 -4 -8 -10 -11 -5 -3 -10 -1 -10 4 0 6 5 11 10 11 6 0 10 -2 10
-4z m637 -91 c0 -8 -6 -16 -13 -19 -8 -3 -11 -12 -7 -22 5 -14 2 -16 -15 -12
-18 5 -22 2 -22 -19 0 -25 -20 -28 -28 -3 -3 7 0 10 6 7 5 -4 12 6 15 21 3 15
1 29 -4 30 -20 8 -7 24 16 20 14 -3 25 -1 25 3 0 5 6 9 13 9 8 0 14 -7 14 -15z
m61 3 c-7 -20 -48 -23 -48 -4 0 11 9 16 26 16 16 0 24 -5 22 -12z m147 2 c-3
-5 -19 -7 -35 -3 -18 3 -30 1 -30 -5 0 -5 -9 -12 -20 -15 -11 -3 -17 -1 -14 4
3 5 -5 13 -18 18 -17 7 -4 9 50 10 42 0 70 -4 67 -9z m45 6 c0 -3 -4 -8 -10
-11 -5 -3 -10 -1 -10 4 0 6 5 11 10 11 6 0 10 -2 10 -4z m-980 -16 c0 -5 -5
-10 -11 -10 -5 0 -7 5 -4 10 3 6 8 10 11 10 2 0 4 -4 4 -10z m-85 -10 c-3 -5
-10 -10 -16 -10 -5 0 -9 5 -9 10 0 6 7 10 16 10 8 0 12 -4 9 -10z m-65 -10 c0
-5 -5 -10 -11 -10 -5 0 -7 5 -4 10 3 6 8 10 11 10 2 0 4 -4 4 -10z m950 0 c0
-5 -4 -10 -10 -10 -5 0 -10 5 -10 10 0 6 5 10 10 10 6 0 10 -4 10 -10z m-16
-65 c-26 -19 -39 -19 -20 1 9 8 16 21 16 27 0 8 3 8 12 -1 9 -9 8 -15 -8 -27z
m-78 -12 c-7 -7 -26 7 -26 19 0 6 6 6 15 -2 9 -7 13 -15 11 -17z m-569 -85
c-3 -8 -6 -5 -6 6 -1 11 2 17 5 13 3 -3 4 -12 1 -19z m599 7 c22 -17 12 -20
-17 -5 -15 9 -19 7 -19 -7 0 -10 -5 -25 -10 -33 -8 -11 -10 -6 -6 20 2 19 5
36 5 38 3 7 30 0 47 -13z m69 -5 c3 -5 1 -10 -4 -10 -6 0 -11 5 -11 10 0 6 2
10 4 10 3 0 8 -4 11 -10z m-45 -63 c0 -5 -4 -5 -10 -2 -19 12 -31 -6 -17 -26
17 -23 11 -63 -11 -81 -13 -11 -14 -10 -8 10 8 25 -11 31 -32 10 -9 -9 -12 -7
-12 11 0 14 4 20 11 15 8 -4 9 0 4 15 -8 27 -1 27 25 -1 11 -12 20 -17 20 -11
0 7 -7 19 -16 28 -15 15 -15 18 7 41 21 23 38 19 39 -9z m-650 -66 c0 -5 -7
-12 -16 -15 -14 -5 -15 -4 -4 9 14 17 20 19 20 6z m70 -41 c0 -5 -4 -10 -10
-10 -5 0 -10 5 -10 10 0 6 5 10 10 10 6 0 10 -4 10 -10z m-140 -70 c0 -5 -2
-10 -4 -10 -3 0 -8 5 -11 10 -3 6 -1 10 4 10 6 0 11 -4 11 -10z m719 -9 c24
-19 22 -41 -5 -41 -9 0 -14 10 -14 28 0 20 -3 23 -10 12 -5 -8 -12 -11 -15 -8
-8 7 2 28 13 28 4 0 18 -9 31 -19z m-1002 -17 c-3 -3 -12 -4 -19 -1 -8 3 -5 6
6 6 11 1 17 -2 13 -5z m67 -116 c-10 -16 -22 -7 -17 13 4 15 8 17 14 8 4 -7 5
-17 3 -21z m13 -73 c22 -19 24 -24 11 -25 -9 0 -24 10 -32 22 -15 20 -16 21
-34 5 -17 -15 -21 -16 -31 -3 -10 11 -8 15 6 19 37 10 53 6 80 -18z m-97 -25
c0 -11 -7 -20 -15 -20 -18 0 -19 12 -3 28 16 16 18 15 18 -8z m340 -89 c0 -5
3 -18 6 -28 6 -16 5 -16 -9 2 -19 23 -21 35 -7 35 6 0 10 -4 10 -9z m100 -5
c0 -2 -7 -7 -16 -10 -8 -3 -12 -2 -9 4 6 10 25 14 25 6z m15 -58 c6 -4 2 -8
-7 -8 -10 0 -18 7 -18 17 0 9 3 12 8 7 4 -5 12 -12 17 -16z m-303 -40 c-7 -7
-12 -8 -12 -2 0 14 12 26 19 19 2 -3 -1 -11 -7 -17z m-132 -36 c0 -4 -9 -8
-20 -9 -11 -1 -18 2 -15 8 7 11 35 12 35 1z m40 -2 c0 -5 -4 -10 -10 -10 -5 0
-10 5 -10 10 0 6 5 10 10 10 6 0 10 -4 10 -10z m-125 -140 c8 -13 -5 -13 -25
0 -13 8 -13 10 2 10 9 0 20 -4 23 -10z m45 4 c0 -3 -12 -15 -26 -26 -20 -16
-23 -23 -12 -29 7 -5 8 -9 2 -9 -21 0 -23 13 -7 41 15 25 43 40 43 23z m-85
-104 c3 -5 -1 -10 -10 -10 -9 0 -13 5 -10 10 3 6 8 10 10 10 2 0 7 -4 10 -10z
m-115 -190 c0 -5 -4 -10 -10 -10 -5 0 -10 5 -10 10 0 6 5 10 10 10 6 0 10 -4
10 -10z"/>
<path d="M4700 3970 c-13 -9 -13 -11 0 -20 10 -6 16 -6 18 0 7 20 -3 30 -18
20z"/>
<path d="M4750 3870 c0 -5 5 -10 11 -10 5 0 7 5 4 10 -3 6 -8 10 -11 10 -2 0
-4 -4 -4 -10z"/>
<path d="M4838 3823 c7 -3 16 -2 19 1 4 3 -2 6 -13 5 -11 0 -14 -3 -6 -6z"/>
<path d="M5716 3351 c-8 -12 3 -41 15 -41 12 0 12 37 0 45 -5 3 -12 1 -15 -4z"/>
<path d="M5870 3240 c0 -5 5 -10 11 -10 5 0 7 5 4 10 -3 6 -8 10 -11 10 -2 0
-4 -4 -4 -10z"/>
<path d="M3570 4940 c0 -5 5 -10 10 -10 6 0 10 5 10 10 0 6 -4 10 -10 10 -5 0
-10 -4 -10 -10z"/>
<path d="M4515 2770 c3 -5 8 -10 11 -10 2 0 4 5 4 10 0 6 -5 10 -11 10 -5 0
-7 -4 -4 -10z"/>
<path d="M7966 7922 c-32 -94 -32 -102 -5 -95 12 4 25 0 30 -8 5 -9 9 23 9 84
0 53 -2 97 -4 97 -2 0 -16 -35 -30 -78z"/>
<path d="M6870 7980 c0 -5 16 -10 35 -10 19 0 35 5 35 10 0 6 -16 10 -35 10
-19 0 -35 -4 -35 -10z"/>
<path d="M7980 7778 c-37 -58 -45 -163 -13 -175 25 -10 39 14 20 35 -21 23
-22 46 -1 66 10 10 14 30 12 56 -3 40 -3 40 -18 18z"/>
<path d="M7851 7678 c-1 -15 4 -30 9 -33 12 -7 12 12 0 40 -8 18 -9 17 -9 -7z"/>
<path d="M7873 7604 c3 -16 -2 -49 -10 -73 -13 -39 -13 -45 1 -59 14 -14 17
-14 36 3 24 21 26 63 5 91 -8 10 -15 27 -15 36 0 9 -5 20 -11 24 -8 5 -10 -2
-6 -22z"/>
<path d="M7907 7343 c-8 -12 4 -63 15 -63 5 0 7 14 4 31 -5 34 -11 45 -19 32z"/>
<path d="M2985 7040 c3 -5 8 -10 11 -10 2 0 4 5 4 10 0 6 -5 10 -11 10 -5 0
-7 -4 -4 -10z"/>
<path d="M2973 7000 c-4 -16 -8 -18 -20 -9 -8 7 -13 8 -12 3 4 -24 -2 -43 -14
-38 -7 2 -13 -4 -14 -16 -2 -19 0 -19 23 -4 13 9 24 20 24 23 0 4 12 7 28 6
17 -2 19 -1 5 2 -22 4 -22 30 1 45 7 5 6 8 -2 8 -8 0 -16 -9 -19 -20z"/>
<path d="M3010 6919 c-17 -17 -29 -34 -26 -37 7 -6 76 46 76 59 0 17 -18 9
-50 -22z"/>
<path d="M2813 6838 c-11 -13 -26 -33 -32 -45 -6 -12 -23 -28 -38 -35 -14 -7
-30 -23 -34 -35 -12 -33 -1 -28 12 5 6 15 13 22 16 15 7 -20 82 36 89 66 3 14
7 32 10 39 5 17 0 15 -23 -10z"/>
<path d="M2874 6842 c-12 -8 -38 -52 -30 -52 3 0 14 14 26 30 22 31 23 35 4
22z"/>
<path d="M7073 6842 c-13 -8 -24 -100 -13 -107 12 -8 60 35 60 53 -1 25 -33
63 -47 54z"/>
<path d="M2763 6725 c-9 -25 2 -27 22 -5 17 18 17 20 1 20 -9 0 -19 -7 -23
-15z"/>
<path d="M2822 6714 c-23 -16 -21 -34 2 -34 8 0 16 10 19 22 8 29 5 31 -21 12z"/>
<path d="M2730 6694 c0 -8 5 -12 10 -9 6 3 10 10 10 16 0 5 -4 9 -10 9 -5 0
-10 -7 -10 -16z"/>
<path d="M2765 6650 c-4 -6 -10 -8 -14 -5 -9 5 -57 -42 -50 -49 2 -2 15 1 29
7 14 6 34 11 45 11 24 1 35 46 11 46 -8 0 -18 -5 -21 -10z"/>
<path d="M2680 6569 c0 -5 5 -7 10 -4 6 3 10 8 10 11 0 2 -4 4 -10 4 -5 0 -10
-5 -10 -11z"/>
<path d="M2719 6351 c8 -14 7 -20 -4 -24 -10 -4 -12 -1 -9 11 5 14 4 14 -4 2
-5 -8 -12 -33 -15 -55 -5 -33 -4 -37 5 -20 7 11 21 27 31 36 15 12 18 22 13
42 -3 15 -11 27 -17 27 -6 0 -6 -6 0 -19z"/>
<path d="M2695 6221 c-3 -5 -1 -12 5 -16 5 -3 10 1 10 9 0 18 -6 21 -15 7z"/>
<path d="M2746 6217 c3 -10 9 -15 12 -12 3 3 0 11 -7 18 -10 9 -11 8 -5 -6z"/>
<path d="M2776 6194 c-4 -14 -5 -29 -2 -31 3 -3 8 7 12 21 3 15 4 29 1 32 -2
3 -8 -7 -11 -22z"/>
<path d="M2921 6134 c0 -11 3 -14 6 -6 3 7 2 16 -1 19 -3 4 -6 -2 -5 -13z"/>
<path d="M2783 6003 c-3 -10 -8 -21 -10 -25 -1 -3 6 -4 17 -1 21 6 27 28 10
38 -6 3 -13 -2 -17 -12z"/>
<path d="M2866 5965 c8 -61 10 -65 16 -26 2 16 -2 40 -9 53 -12 21 -13 18 -7
-27z"/>
<path d="M2760 5932 c0 -12 19 -26 26 -19 2 2 -2 10 -11 17 -9 8 -15 8 -15 2z"/>
<path d="M3071 5813 c-1 -74 25 -153 69 -203 34 -40 30 -15 -7 39 -25 37 -42
90 -44 136 -1 17 -5 44 -9 60 -6 24 -8 17 -9 -32z"/>
<path d="M2814 5802 c-17 -12 -24 -52 -9 -52 19 0 28 17 13 23 -10 3 -10 7 1
20 14 18 13 21 -5 9z"/>
<path d="M2630 5675 c-22 -24 -23 -26 -12 -137 7 -62 18 -133 25 -158 l14 -45
7 101 c5 69 15 118 31 159 l24 59 -21 23 c-27 29 -39 29 -68 -2z"/>
<path d="M2810 5626 c0 -13 5 -37 11 -53 9 -25 11 -26 21 -10 7 13 6 27 -2 48
-17 39 -30 46 -30 15z"/>
<path d="M7394 5553 c-9 -21 -17 -49 -19 -63 -1 -14 -5 -38 -10 -53 -8 -32 30
-127 52 -127 7 0 13 -7 13 -16 0 -9 6 -14 13 -11 8 2 12 30 13 87 2 78 3 84
30 105 26 20 27 25 16 49 -6 14 -17 26 -23 26 -6 0 -24 9 -40 21 l-29 21 -16
-39z"/>
<path d="M2758 5543 c-25 -6 -41 -57 -34 -105 4 -24 6 -64 6 -90 -1 -28 4 -50
12 -54 16 -11 108 -15 108 -6 0 4 -9 21 -20 37 -24 37 -25 57 -3 117 16 47 16
49 -4 75 -21 29 -35 34 -65 26z"/>
<path d="M2928 5325 c-7 -8 10 -97 21 -108 5 -5 8 2 8 17 -1 14 -5 26 -9 26
-4 0 -6 14 -6 30 1 31 -4 44 -14 35z"/>
<path d="M7240 5189 c0 -5 5 -7 10 -4 6 3 10 8 10 11 0 2 -4 4 -10 4 -5 0 -10
-5 -10 -11z"/>
<path d="M7266 5118 c-3 -16 0 -39 6 -51 7 -12 11 -25 10 -29 -5 -20 26 -5 38
17 17 32 4 75 -26 86 -19 6 -23 3 -28 -23z"/>
<path d="M2961 5074 c0 -11 3 -14 6 -6 3 7 2 16 -1 19 -3 4 -6 -2 -5 -13z"/>
<path d="M2889 5063 c-13 -15 -12 -15 9 -4 23 12 28 21 13 21 -5 0 -15 -7 -22
-17z"/>
<path d="M2995 4880 c3 -5 8 -10 11 -10 2 0 4 5 4 10 0 6 -5 10 -11 10 -5 0
-7 -4 -4 -10z"/>
<path d="M2980 4810 c0 -19 3 -21 12 -12 9 9 9 15 0 24 -9 9 -12 7 -12 -12z"/>
<path d="M2678 3933 c7 -3 16 -2 19 1 4 3 -2 6 -13 5 -11 0 -14 -3 -6 -6z"/>
<path d="M2710 3912 c0 -4 9 -8 20 -9 11 -1 20 2 20 8 0 5 -9 9 -20 9 -11 0
-20 -4 -20 -8z"/>
<path d="M2620 3835 c-8 -9 -8 -15 -2 -15 12 0 26 19 19 26 -2 2 -10 -2 -17
-11z"/>
<path d="M2735 3800 c-3 -6 1 -7 10 -4 11 5 14 2 9 -12 -4 -14 -3 -16 4 -5 5
7 16 17 23 22 10 6 6 9 -13 9 -15 0 -30 -4 -33 -10z"/>
<path d="M2806 3762 c22 -26 34 -28 34 -7 0 8 -4 15 -9 15 -5 0 -17 3 -26 7
-16 5 -15 4 1 -15z"/>
<path d="M2325 3699 c1 -25 10 -58 20 -72 9 -15 15 -34 11 -42 -3 -9 0 -15 9
-15 17 0 20 -16 5 -25 -12 -7 -14 -26 -2 -24 21 4 31 -3 26 -16 -4 -8 -1 -15
6 -15 10 0 10 -3 0 -15 -16 -19 -6 -45 17 -45 15 0 15 -2 3 -9 -8 -6 -18 -7
-24 -4 -5 3 -6 1 -2 -5 4 -7 16 -12 28 -12 15 0 19 -5 16 -18 -3 -10 1 -27 10
-38 13 -18 14 -17 9 12 -3 16 -7 37 -9 45 -2 8 3 13 11 11 8 -2 11 3 8 13 -4
8 -2 15 4 15 6 0 8 4 5 9 -3 4 -17 7 -31 5 -24 -2 -26 0 -20 27 4 16 2 29 -3
29 -5 0 -9 6 -9 14 0 8 6 12 15 8 10 -4 13 -1 8 7 -5 7 -18 16 -31 21 -29 11
-43 63 -24 88 11 14 11 15 0 5 -11 -9 -17 -9 -28 2 -7 8 -13 18 -12 22 1 4 0
15 -4 23 -3 8 -8 22 -10 30 -3 8 -4 -6 -2 -31z"/>
<path d="M2331 3584 c0 -11 3 -14 6 -6 3 7 2 16 -1 19 -3 4 -6 -2 -5 -13z"/>
<path d="M7307 3548 c-7 -20 4 -182 13 -192 5 -4 14 2 20 15 7 13 22 34 33 47
l20 22 -20 23 c-11 12 -26 37 -33 55 -14 37 -26 48 -33 30z"/>
<path d="M2864 3503 c0 -29 3 -34 18 -30 11 3 15 1 12 -5 -5 -7 3 -8 22 -3 16
4 38 9 48 10 29 2 31 23 5 45 -28 25 -30 25 -63 -1 -21 -16 -26 -17 -26 -5 0
32 -15 22 -16 -11z"/>
<path d="M2507 3505 c13 -9 20 -22 17 -30 -4 -10 0 -15 11 -15 12 0 15 5 11
16 -3 9 -6 22 -6 30 0 9 -10 14 -27 14 l-27 0 21 -15z"/>
<path d="M1455 3470 c-3 -6 1 -7 9 -4 18 7 21 14 7 14 -6 0 -13 -4 -16 -10z"/>
<path d="M2498 3436 c-23 -17 -23 -26 2 -26 13 0 20 7 20 20 0 23 0 23 -22 6z"/>
<path d="M1380 3349 c0 -5 5 -7 10 -4 6 3 10 8 10 11 0 2 -4 4 -10 4 -5 0 -10
-5 -10 -11z"/>
<path d="M655 3120 c-77 -4 -201 -11 -275 -14 -74 -3 -190 -9 -257 -12 l-123
-7 0 -51 0 -52 368 22 c553 33 554 33 579 53 11 10 23 29 25 42 3 24 2 24 -87
25 -49 1 -153 -2 -230 -6z"/>
<path d="M1072 3043 c-9 -21 -20 -40 -24 -43 -3 -3 -10 -19 -14 -35 -11 -45
-45 -106 -55 -99 -5 3 -10 -1 -10 -8 -1 -7 -2 -17 -4 -23 -1 -5 -3 -20 -3 -32
-2 -27 -19 -30 -25 -5 -3 10 -5 6 -6 -10 0 -16 3 -28 9 -28 5 0 1 -16 -10 -35
-24 -43 -28 -84 -6 -66 8 7 18 27 21 44 4 18 26 73 49 122 24 50 49 106 56
125 7 19 18 40 23 47 10 13 28 83 21 83 -2 0 -12 -17 -22 -37z"/>
<path d="M1055 2919 c-4 -6 -4 -13 -1 -16 3 -4 6 -1 6 6 0 7 5 9 12 5 7 -4 8
-3 4 4 -9 15 -13 15 -21 1z"/>
<path d="M896 2745 c-3 -9 0 -15 9 -15 16 0 20 16 6 24 -5 3 -11 -1 -15 -9z"/>
<path d="M938 2629 c-17 -18 -17 -19 0 -19 13 0 14 -2 4 -9 -11 -7 -10 -11 2
-24 10 -10 12 -18 6 -22 -5 -3 -10 -1 -10 6 0 8 -3 9 -13 0 -8 -6 -16 -10 -18
-8 -2 1 2 -3 9 -9 19 -17 79 -15 86 3 4 10 1 13 -13 8 -23 -7 -37 21 -20 41
11 13 4 55 -9 53 -4 0 -15 -9 -24 -20z"/>
<path d="M1005 2581 c3 -6 10 -9 15 -6 4 3 11 0 13 -5 3 -6 4 -5 3 2 -1 7 -11
15 -21 16 -11 3 -15 0 -10 -7z"/>
<path d="M1060 2529 c-7 -11 -10 -23 -7 -25 2 -2 9 7 15 21 14 30 7 33 -8 4z"/>
<path d="M905 2511 c-28 -6 -29 -8 -10 -18 11 -5 26 -8 34 -5 9 3 12 0 9 -9
-3 -8 -2 -23 2 -34 6 -18 8 -18 23 6 19 29 12 70 -12 68 -9 -1 -29 -4 -46 -8z"/>
<path d="M997 2487 c-2 -6 3 -19 11 -27 14 -13 15 -12 10 2 -4 8 -1 21 5 27 8
8 7 11 -5 11 -9 0 -18 -6 -21 -13z"/>
<path d="M1030 2469 c0 -6 35 -19 53 -19 4 0 7 6 7 14 0 8 -11 13 -30 12 -16
-1 -30 -4 -30 -7z"/>
<path d="M868 2463 c7 -3 16 -2 19 1 4 3 -2 6 -13 5 -11 0 -14 -3 -6 -6z"/>
<path d="M960 2429 c0 -4 8 -9 18 -12 14 -3 13 -6 -7 -14 -21 -8 -22 -11 -7
-16 10 -4 27 0 39 8 12 8 29 15 39 15 10 0 18 5 18 10 0 13 -6 13 -31 0 -11
-6 -19 -7 -19 -2 0 6 -11 12 -25 14 -14 3 -25 2 -25 -3z"/>
<path d="M1097 2420 c3 -11 9 -17 15 -14 5 3 4 12 -3 20 -16 19 -18 18 -12 -6z"/>
<path d="M1035 2370 c-19 -8 -19 -9 3 -9 12 -1 22 4 22 9 0 6 -1 10 -2 9 -2 0
-12 -4 -23 -9z"/>
<path d="M976 2355 c6 -15 44 -37 44 -25 0 5 -4 10 -10 10 -5 0 -7 6 -4 14 4
10 -1 14 -14 13 -11 0 -18 -6 -16 -12z"/>
<path d="M1180 2320 c0 -5 5 -10 10 -10 6 0 10 5 10 10 0 6 -4 10 -10 10 -5 0
-10 -4 -10 -10z"/>
<path d="M1150 2276 c0 -9 -7 -12 -20 -9 -11 3 -20 0 -20 -6 0 -5 -8 -8 -17
-5 -15 5 -16 4 -3 -5 8 -6 23 -11 34 -11 12 0 16 -5 12 -15 -4 -10 4 -8 25 7
17 13 26 24 20 26 -5 2 -7 10 -4 18 3 8 -1 14 -11 14 -9 0 -16 -6 -16 -14z"/>
<path d="M830 2276 c0 -2 7 -6 15 -10 8 -3 15 -1 15 4 0 6 -7 10 -15 10 -8 0
-15 -2 -15 -4z"/>
<path d="M763 2256 c2 -6 10 -11 18 -11 8 0 13 -8 13 -18 -1 -9 2 -14 7 -11 5
3 9 16 9 28 0 18 -6 24 -25 24 -15 0 -24 -5 -22 -12z"/>
<path d="M910 2260 c-12 -7 -12 -12 -3 -21 10 -10 14 -9 19 5 8 22 2 27 -16
16z"/>
<path d="M706 2213 c7 -39 14 -42 14 -5 0 18 -4 32 -9 32 -5 0 -7 -12 -5 -27z"/>
<path d="M838 2233 c7 -3 16 -2 19 1 4 3 -2 6 -13 5 -11 0 -14 -3 -6 -6z"/>
<path d="M986 2223 c-6 -14 -5 -15 5 -6 7 7 10 15 7 18 -3 3 -9 -2 -12 -12z"/>
<path d="M1100 2179 c0 -5 5 -7 10 -4 6 3 10 8 10 11 0 2 -4 4 -10 4 -5 0 -10
-5 -10 -11z"/>
<path d="M685 2160 c10 -11 24 -20 32 -20 10 0 12 -7 8 -22 -5 -17 -4 -19 4
-8 8 12 13 12 30 -4 25 -23 26 -19 6 21 -17 34 -37 46 -60 37 -8 -4 -15 -1
-15 5 0 6 -5 11 -12 11 -6 0 -3 -9 7 -20z"/>
<path d="M778 2073 c7 -3 16 -2 19 1 4 3 -2 6 -13 5 -11 0 -14 -3 -6 -6z"/>
<path d="M690 2045 c-8 -9 -9 -15 -2 -15 6 0 14 5 17 10 4 6 11 7 17 4 7 -4 8
-2 4 4 -10 16 -21 15 -36 -3z"/>
<path d="M570 1972 c0 -6 -10 -8 -22 -5 -19 5 -21 3 -11 -7 9 -10 18 -11 35
-3 15 6 18 12 10 17 -7 4 -12 3 -12 -2z"/>
<path d="M820 1915 c0 -8 4 -15 10 -15 5 0 7 7 4 15 -4 8 -8 15 -10 15 -2 0
-4 -7 -4 -15z"/>
<path d="M6050 1846 c0 -9 30 -14 35 -6 4 6 -3 10 -14 10 -12 0 -21 -2 -21 -4z"/>
<path d="M550 1781 c0 -7 -5 -9 -12 -5 -7 5 -8 3 -3 -5 5 -9 10 -10 18 -2 6 6
8 14 4 18 -4 3 -7 1 -7 -6z"/>
<path d="M510 1690 c0 -4 6 -12 13 -19 10 -8 17 -7 26 2 10 9 11 8 5 -8 -5
-16 -4 -18 6 -8 16 15 1 38 -27 39 -13 0 -23 -3 -23 -6z"/>
<path d="M710 810 c0 -5 5 -10 10 -10 6 0 10 5 10 10 0 6 -4 10 -10 10 -5 0
-10 -4 -10 -10z"/>
<path d="M705 760 c-3 -5 1 -10 9 -10 9 0 16 5 16 10 0 6 -4 10 -9 10 -6 0
-13 -4 -16 -10z"/>
<path d="M382 444 c4 -21 22 -23 26 -1 2 10 -3 17 -13 17 -10 0 -15 -6 -13
-16z"/>
<path d="M430 451 c0 -6 5 -13 10 -16 6 -3 10 1 10 9 0 9 -4 16 -10 16 -5 0
-10 -4 -10 -9z"/>
<path d="M455 431 c-4 -20 -11 -28 -20 -25 -11 5 -12 1 -3 -18 9 -19 18 -23
40 -20 15 2 28 9 28 14 0 6 -7 8 -15 4 -8 -3 -15 -1 -15 4 0 6 8 10 17 10 15
0 14 2 -3 16 -19 15 -19 15 3 11 25 -6 40 18 17 27 -30 12 -42 6 -49 -23z"/>
<path d="M560 441 c-7 -13 -7 -22 0 -26 6 -3 7 -17 4 -30 -3 -13 -1 -26 6 -30
7 -5 11 0 10 11 -5 41 0 75 10 69 6 -3 10 1 10 9 0 22 -27 20 -40 -3z"/>
<path d="M290 435 c0 -3 8 -17 17 -32 24 -37 25 -65 1 -57 -10 3 -17 2 -16 -3
1 -4 -4 -19 -11 -32 -12 -22 -12 -23 5 -19 11 3 27 9 37 13 13 6 17 2 17 -16
0 -19 -2 -21 -10 -9 -5 8 -10 11 -10 5 0 -21 18 -37 31 -29 10 6 10 3 -1 -12
-14 -18 -14 -18 3 -5 12 10 17 23 14 38 -2 13 0 26 4 29 5 3 9 10 9 17 0 8 -3
8 -11 0 -15 -15 -39 -5 -33 12 3 8 13 11 22 8 13 -5 14 -3 5 7 -6 7 -9 19 -6
28 4 10 2 13 -5 8 -7 -4 -12 -2 -12 3 0 6 -9 20 -20 31 -20 20 -30 25 -30 15z"/>
<path d="M605 400 c-4 -7 -1 -16 6 -21 17 -10 26 8 11 23 -6 6 -12 6 -17 -2z"/>
<path d="M277 379 c-6 -22 6 -25 22 -5 9 10 8 15 -3 19 -8 3 -16 -2 -19 -14z"/>
<path d="M390 392 c0 -7 4 -12 9 -12 5 0 7 -9 4 -20 -6 -23 0 -26 16 -7 8 11
6 18 -9 32 -11 10 -20 13 -20 7z"/>
<path d="M450 339 c0 -5 5 -7 10 -4 6 3 10 8 10 11 0 2 -4 4 -10 4 -5 0 -10
-5 -10 -11z"/>
<path d="M0 305 c0 -22 4 -25 33 -25 34 0 57 15 57 37 0 9 -15 13 -45 13 -41
0 -45 -2 -45 -25z"/>
<path d="M640 289 c0 -5 5 -7 10 -4 6 3 10 8 10 11 0 2 -4 4 -10 4 -5 0 -10
-5 -10 -11z"/>
<path d="M214 245 c0 -14 7 -27 14 -30 13 -5 14 0 6 33 -8 30 -22 28 -20 -3z"/>
<path d="M302 240 c0 -14 2 -19 5 -12 2 6 2 18 0 25 -3 6 -5 1 -5 -13z"/>
<path d="M174 201 c10 -11 15 -24 12 -30 -4 -5 3 -9 14 -8 11 1 20 3 20 4 0 8
-45 53 -53 53 -6 0 -2 -9 7 -19z"/>
<path d="M230 196 c0 -2 8 -10 18 -17 15 -13 16 -12 3 4 -13 16 -21 21 -21 13z"/>
<path d="M160 129 c0 -5 5 -7 10 -4 6 3 10 8 10 11 0 2 -4 4 -10 4 -5 0 -10
-5 -10 -11z"/>
<path d="M155 99 c-4 -6 -3 -15 3 -21 6 -6 11 -4 15 6 7 18 -9 31 -18 15z"/>
<path d="M140 60 c0 -5 5 -10 11 -10 5 0 7 5 4 10 -3 6 -8 10 -11 10 -2 0 -4
-4 -4 -10z"/>
<path d="M435 61 c4 -8 2 -17 -6 -22 -9 -6 -10 -9 -2 -9 19 0 27 21 13 33 -10
9 -11 9 -5 -2z"/>
<path d="M1850 29 c0 -5 5 -7 10 -4 6 3 10 8 10 11 0 2 -4 4 -10 4 -5 0 -10
-5 -10 -11z"/>
</g>
</svg>
